<mxfile host="app.diagrams.net" agent="Mozilla/5.0 (Windows NT 10.0; Win64; x64) AppleWebKit/537.36 (KHTML, like Gecko) Chrome/132.0.0.0 Safari/537.36" version="26.0.10">
  <diagram name="Página-1" id="d9ycY8rJnbUjDmav4aSZ">
    <mxGraphModel dx="1781" dy="560" grid="1" gridSize="10" guides="1" tooltips="1" connect="1" arrows="1" fold="1" page="1" pageScale="1" pageWidth="827" pageHeight="1169" math="0" shadow="0">
      <root>
        <mxCell id="0" />
        <mxCell id="1" parent="0" />
        <mxCell id="Zdce6HnhG63lQme36eaB-1" value="INICIO" style="strokeWidth=2;html=1;shape=mxgraph.flowchart.start_1;whiteSpace=wrap;" vertex="1" parent="1">
          <mxGeometry x="380" y="10" width="100" height="60" as="geometry" />
        </mxCell>
        <mxCell id="Zdce6HnhG63lQme36eaB-2" value="FIM" style="strokeWidth=2;html=1;shape=mxgraph.flowchart.start_1;whiteSpace=wrap;" vertex="1" parent="1">
          <mxGeometry x="370" y="500" width="100" height="60" as="geometry" />
        </mxCell>
        <mxCell id="Zdce6HnhG63lQme36eaB-3" value="&lt;div&gt;&lt;br&gt;&lt;/div&gt;&lt;div&gt;&lt;span style=&quot;color: rgb(64, 64, 64); font-family: Inter, system-ui, -apple-system, BlinkMacSystemFont, &amp;quot;Segoe UI&amp;quot;, Roboto, &amp;quot;Noto Sans&amp;quot;, Ubuntu, Cantarell, &amp;quot;Helvetica Neue&amp;quot;, Oxygen, &amp;quot;Open Sans&amp;quot;, sans-serif; font-size: 16.002px; text-align: left;&quot;&gt;Digite altura e sexo (M/F):&lt;/span&gt;&lt;/div&gt;" style="html=1;strokeWidth=2;shape=manualInput;whiteSpace=wrap;rounded=1;size=26;arcSize=11;" vertex="1" parent="1">
          <mxGeometry x="325" y="80" width="210" height="60" as="geometry" />
        </mxCell>
        <mxCell id="Zdce6HnhG63lQme36eaB-4" value="&lt;span style=&quot;color: rgb(64, 64, 64); font-family: Inter, system-ui, -apple-system, BlinkMacSystemFont, &amp;quot;Segoe UI&amp;quot;, Roboto, &amp;quot;Noto Sans&amp;quot;, Ubuntu, Cantarell, &amp;quot;Helvetica Neue&amp;quot;, Oxygen, &amp;quot;Open Sans&amp;quot;, sans-serif; text-align: left;&quot;&gt;&lt;font style=&quot;font-size: 14px;&quot;&gt;&quot;ALTURA = 0 e&lt;/font&gt;&lt;/span&gt;&lt;div&gt;&lt;span style=&quot;color: rgb(64, 64, 64); font-family: Inter, system-ui, -apple-system, BlinkMacSystemFont, &amp;quot;Segoe UI&amp;quot;, Roboto, &amp;quot;Noto Sans&amp;quot;, Ubuntu, Cantarell, &amp;quot;Helvetica Neue&amp;quot;, Oxygen, &amp;quot;Open Sans&amp;quot;, sans-serif; text-align: left;&quot;&gt;&lt;font style=&quot;font-size: 14px;&quot;&gt;&amp;nbsp;SEXO = VAZIO?&lt;/font&gt;&lt;/span&gt;&lt;/div&gt;" style="strokeWidth=2;html=1;shape=mxgraph.flowchart.decision;whiteSpace=wrap;" vertex="1" parent="1">
          <mxGeometry x="360" y="310" width="140" height="100" as="geometry" />
        </mxCell>
        <mxCell id="Zdce6HnhG63lQme36eaB-6" style="edgeStyle=orthogonalEdgeStyle;rounded=0;orthogonalLoop=1;jettySize=auto;html=1;exitX=0.5;exitY=1;exitDx=0;exitDy=0;exitPerimeter=0;entryX=0.62;entryY=0.046;entryDx=0;entryDy=0;entryPerimeter=0;" edge="1" parent="1" source="Zdce6HnhG63lQme36eaB-4" target="Zdce6HnhG63lQme36eaB-2">
          <mxGeometry relative="1" as="geometry" />
        </mxCell>
        <mxCell id="Zdce6HnhG63lQme36eaB-8" value="SIM" style="edgeLabel;html=1;align=center;verticalAlign=middle;resizable=0;points=[];" vertex="1" connectable="0" parent="Zdce6HnhG63lQme36eaB-6">
          <mxGeometry x="-0.4182" y="1" relative="1" as="geometry">
            <mxPoint as="offset" />
          </mxGeometry>
        </mxCell>
        <mxCell id="Zdce6HnhG63lQme36eaB-12" style="edgeStyle=orthogonalEdgeStyle;rounded=0;orthogonalLoop=1;jettySize=auto;html=1;exitX=0.5;exitY=0;exitDx=0;exitDy=0;exitPerimeter=0;" edge="1" parent="1" source="Zdce6HnhG63lQme36eaB-7" target="Zdce6HnhG63lQme36eaB-11">
          <mxGeometry relative="1" as="geometry" />
        </mxCell>
        <mxCell id="Zdce6HnhG63lQme36eaB-13" value="SIM" style="edgeLabel;html=1;align=center;verticalAlign=middle;resizable=0;points=[];" vertex="1" connectable="0" parent="Zdce6HnhG63lQme36eaB-12">
          <mxGeometry x="-0.04" y="-1" relative="1" as="geometry">
            <mxPoint as="offset" />
          </mxGeometry>
        </mxCell>
        <mxCell id="Zdce6HnhG63lQme36eaB-15" style="edgeStyle=orthogonalEdgeStyle;rounded=0;orthogonalLoop=1;jettySize=auto;html=1;exitX=0;exitY=0.5;exitDx=0;exitDy=0;exitPerimeter=0;entryX=1;entryY=0.5;entryDx=0;entryDy=0;" edge="1" parent="1" source="Zdce6HnhG63lQme36eaB-7" target="Zdce6HnhG63lQme36eaB-14">
          <mxGeometry relative="1" as="geometry" />
        </mxCell>
        <mxCell id="Zdce6HnhG63lQme36eaB-16" value="NÃO" style="edgeLabel;html=1;align=center;verticalAlign=middle;resizable=0;points=[];" vertex="1" connectable="0" parent="Zdce6HnhG63lQme36eaB-15">
          <mxGeometry x="0.05" y="-4" relative="1" as="geometry">
            <mxPoint as="offset" />
          </mxGeometry>
        </mxCell>
        <mxCell id="Zdce6HnhG63lQme36eaB-7" value="&lt;span style=&quot;color: rgb(64, 64, 64); font-family: Inter, system-ui, -apple-system, BlinkMacSystemFont, &amp;quot;Segoe UI&amp;quot;, Roboto, &amp;quot;Noto Sans&amp;quot;, Ubuntu, Cantarell, &amp;quot;Helvetica Neue&amp;quot;, Oxygen, &amp;quot;Open Sans&amp;quot;, sans-serif; text-align: left;&quot;&gt;&lt;font&gt;SEXO = M?&lt;/font&gt;&lt;/span&gt;" style="strokeWidth=2;html=1;shape=mxgraph.flowchart.decision;whiteSpace=wrap;" vertex="1" parent="1">
          <mxGeometry x="150" y="310" width="100" height="100" as="geometry" />
        </mxCell>
        <mxCell id="Zdce6HnhG63lQme36eaB-9" style="edgeStyle=orthogonalEdgeStyle;rounded=0;orthogonalLoop=1;jettySize=auto;html=1;exitX=0;exitY=0.5;exitDx=0;exitDy=0;exitPerimeter=0;entryX=1;entryY=0.5;entryDx=0;entryDy=0;entryPerimeter=0;" edge="1" parent="1" source="Zdce6HnhG63lQme36eaB-4" target="Zdce6HnhG63lQme36eaB-7">
          <mxGeometry relative="1" as="geometry" />
        </mxCell>
        <mxCell id="Zdce6HnhG63lQme36eaB-10" value="NÃO" style="edgeLabel;html=1;align=center;verticalAlign=middle;resizable=0;points=[];" vertex="1" connectable="0" parent="Zdce6HnhG63lQme36eaB-9">
          <mxGeometry x="-0.1636" relative="1" as="geometry">
            <mxPoint as="offset" />
          </mxGeometry>
        </mxCell>
        <mxCell id="Zdce6HnhG63lQme36eaB-11" value="&lt;span style=&quot;color: rgb(64, 64, 64); font-family: Inter, system-ui, -apple-system, BlinkMacSystemFont, &amp;quot;Segoe UI&amp;quot;, Roboto, &amp;quot;Noto Sans&amp;quot;, Ubuntu, Cantarell, &amp;quot;Helvetica Neue&amp;quot;, Oxygen, &amp;quot;Open Sans&amp;quot;, sans-serif; text-align: left;&quot;&gt;&lt;font&gt;PESO = (72,7 * ALTURA) – 58&lt;/font&gt;&lt;/span&gt;" style="rounded=1;whiteSpace=wrap;html=1;absoluteArcSize=1;arcSize=14;strokeWidth=2;" vertex="1" parent="1">
          <mxGeometry x="120" y="190" width="160" height="40" as="geometry" />
        </mxCell>
        <mxCell id="Zdce6HnhG63lQme36eaB-14" value="&lt;span style=&quot;color: rgb(64, 64, 64); font-family: Inter, system-ui, -apple-system, BlinkMacSystemFont, &amp;quot;Segoe UI&amp;quot;, Roboto, &amp;quot;Noto Sans&amp;quot;, Ubuntu, Cantarell, &amp;quot;Helvetica Neue&amp;quot;, Oxygen, &amp;quot;Open Sans&amp;quot;, sans-serif; text-align: left;&quot;&gt;&lt;font&gt;PESO = (62,1 * ALTURA) – 44,7&lt;/font&gt;&lt;/span&gt;" style="rounded=1;whiteSpace=wrap;html=1;absoluteArcSize=1;arcSize=14;strokeWidth=2;" vertex="1" parent="1">
          <mxGeometry x="-70" y="340" width="170" height="40" as="geometry" />
        </mxCell>
        <mxCell id="Zdce6HnhG63lQme36eaB-17" value="" style="strokeWidth=2;html=1;shape=mxgraph.flowchart.start_2;whiteSpace=wrap;" vertex="1" parent="1">
          <mxGeometry x="50" y="85" width="50" height="50" as="geometry" />
        </mxCell>
        <mxCell id="Zdce6HnhG63lQme36eaB-22" style="edgeStyle=orthogonalEdgeStyle;rounded=0;orthogonalLoop=1;jettySize=auto;html=1;exitX=0.5;exitY=0;exitDx=0;exitDy=0;entryX=0;entryY=0.5;entryDx=0;entryDy=0;entryPerimeter=0;" edge="1" parent="1" source="Zdce6HnhG63lQme36eaB-14" target="Zdce6HnhG63lQme36eaB-17">
          <mxGeometry relative="1" as="geometry" />
        </mxCell>
        <mxCell id="Zdce6HnhG63lQme36eaB-24" style="edgeStyle=orthogonalEdgeStyle;rounded=0;orthogonalLoop=1;jettySize=auto;html=1;exitX=0.5;exitY=1;exitDx=0;exitDy=0;entryX=0.5;entryY=0;entryDx=0;entryDy=0;entryPerimeter=0;" edge="1" parent="1" source="Zdce6HnhG63lQme36eaB-3" target="Zdce6HnhG63lQme36eaB-4">
          <mxGeometry relative="1" as="geometry" />
        </mxCell>
        <mxCell id="Zdce6HnhG63lQme36eaB-25" style="edgeStyle=orthogonalEdgeStyle;rounded=0;orthogonalLoop=1;jettySize=auto;html=1;exitX=0.5;exitY=1;exitDx=0;exitDy=0;exitPerimeter=0;entryX=0.486;entryY=0.213;entryDx=0;entryDy=0;entryPerimeter=0;" edge="1" parent="1" source="Zdce6HnhG63lQme36eaB-1" target="Zdce6HnhG63lQme36eaB-3">
          <mxGeometry relative="1" as="geometry" />
        </mxCell>
        <mxCell id="Zdce6HnhG63lQme36eaB-26" style="edgeStyle=orthogonalEdgeStyle;rounded=0;orthogonalLoop=1;jettySize=auto;html=1;exitX=0;exitY=0.5;exitDx=0;exitDy=0;entryX=0.5;entryY=1;entryDx=0;entryDy=0;entryPerimeter=0;" edge="1" parent="1" source="Zdce6HnhG63lQme36eaB-11" target="Zdce6HnhG63lQme36eaB-17">
          <mxGeometry relative="1" as="geometry" />
        </mxCell>
        <mxCell id="Zdce6HnhG63lQme36eaB-29" style="edgeStyle=orthogonalEdgeStyle;rounded=0;orthogonalLoop=1;jettySize=auto;html=1;exitX=1;exitY=0.5;exitDx=0;exitDy=0;exitPerimeter=0;entryX=0;entryY=0.5;entryDx=0;entryDy=0;" edge="1" parent="1" source="Zdce6HnhG63lQme36eaB-27" target="Zdce6HnhG63lQme36eaB-3">
          <mxGeometry relative="1" as="geometry" />
        </mxCell>
        <mxCell id="Zdce6HnhG63lQme36eaB-27" value="PESO" style="strokeWidth=2;html=1;shape=mxgraph.flowchart.display;whiteSpace=wrap;" vertex="1" parent="1">
          <mxGeometry x="160" y="80" width="100" height="60" as="geometry" />
        </mxCell>
        <mxCell id="Zdce6HnhG63lQme36eaB-28" style="edgeStyle=orthogonalEdgeStyle;rounded=0;orthogonalLoop=1;jettySize=auto;html=1;exitX=1;exitY=0.5;exitDx=0;exitDy=0;exitPerimeter=0;entryX=0;entryY=0.5;entryDx=0;entryDy=0;entryPerimeter=0;" edge="1" parent="1" source="Zdce6HnhG63lQme36eaB-17" target="Zdce6HnhG63lQme36eaB-27">
          <mxGeometry relative="1" as="geometry" />
        </mxCell>
      </root>
    </mxGraphModel>
  </diagram>
</mxfile>
